<?xml version="1.0" standalone="no"?>
<!DOCTYPE svg PUBLIC "-//W3C//DTD SVG 20010904//EN"
 "http://www.w3.org/TR/2001/REC-SVG-20010904/DTD/svg10.dtd">
<svg version="1.0" xmlns="http://www.w3.org/2000/svg"
 width="323.000000pt" height="274.000000pt" viewBox="0 0 323.000000 274.000000"
 preserveAspectRatio="xMidYMid meet">

<g transform="translate(0.000000,274.000000) scale(0.100000,-0.100000)"
fill="#000000" stroke="none">
<path d="M0 1370 l0 -1370 358 0 c196 1 377 5 402 10 25 5 113 12 195 16 119
5 166 3 225 -10 66 -14 194 -16 1063 -16 l987 0 0 1370 0 1370 -1615 0 -1615
0 0 -1370z m2137 1170 c127 -16 210 -78 266 -198 38 -81 46 -169 27 -314 -11
-87 -14 -98 -32 -98 -17 0 -20 5 -15 28 3 16 -2 43 -13 67 -11 22 -19 36 -20
31 0 -21 -50 59 -56 90 -4 24 -10 31 -22 27 -11 -5 -14 -2 -10 8 3 8 -1 20 -8
27 -12 11 -14 8 -14 -16 0 -48 -20 -92 -51 -107 -60 -32 -125 -13 -178 51
l-30 37 -7 -29 c-4 -16 -11 -34 -16 -41 -6 -8 6 -32 38 -75 65 -88 94 -158
104 -250 8 -79 7 -90 -12 -193 -44 -246 -302 -430 -552 -394 -128 18 -257 86
-336 177 -45 52 -105 168 -115 225 -8 42 -25 40 -25 -3 0 -16 -4 -31 -9 -34
-5 -4 -8 -44 -7 -91 1 -47 -1 -85 -4 -85 -4 0 -12 -16 -20 -35 -8 -19 -17 -35
-20 -35 -10 0 -55 -40 -55 -49 0 -7 -17 -27 -72 -87 -12 -13 -24 -33 -28 -44
-3 -11 -12 -20 -19 -20 -8 0 -11 -11 -9 -32 3 -28 -1 -23 -24 27 l-28 60 0
570 0 570 23 51 c38 84 135 163 225 184 47 11 1039 11 1124 0z m526 -1972 c3
-29 4 -132 3 -228 -1 -152 -4 -175 -18 -178 -11 -2 -18 7 -23 28 l-7 31 -34
-31 c-40 -35 -75 -38 -120 -11 -89 54 -113 146 -60 234 32 56 50 67 110 67 33
0 52 -6 75 -26 l31 -26 0 96 c0 87 2 96 19 96 15 0 20 -10 24 -52z m-1032 -20
c18 -29 52 -91 75 -138 23 -47 49 -94 57 -105 l16 -20 16 20 c9 11 46 80 82
153 50 101 70 132 85 132 18 0 19 -8 16 -210 -3 -192 -4 -210 -20 -210 -16 0
-18 14 -18 156 l0 157 -24 -45 c-13 -25 -44 -80 -68 -122 -23 -43 -47 -86 -53
-97 -5 -10 -13 -19 -16 -19 -9 0 -44 61 -110 190 l-54 105 -3 -158 c-2 -148
-4 -157 -22 -157 -18 0 -19 10 -22 210 -3 187 -1 210 13 210 9 0 31 -24 50
-52z m-1311 -55 c0 -54 3 -149 7 -210 l6 -113 -51 0 -52 0 0 210 0 210 45 0
45 0 0 -97z m800 36 l0 -51 33 4 c29 3 32 0 35 -25 4 -35 -13 -57 -44 -57 -23
0 -24 -3 -24 -70 l0 -70 30 -1 c17 -1 36 -2 43 -3 6 -1 13 9 15 20 2 12 11 29
22 39 20 18 110 45 153 45 28 0 34 14 18 40 -6 8 -22 13 -43 11 -105 -8 -103
-8 -103 24 0 38 31 55 103 55 66 0 110 -22 127 -63 8 -19 15 -80 16 -142 l3
-110 -34 -3 c-18 -2 -43 2 -55 8 -17 9 -28 9 -43 1 -32 -17 -104 -13 -136 8
-28 19 -28 19 -48 -1 -27 -27 -99 -20 -134 13 -22 21 -24 30 -24 111 l0 89
-31 6 c-27 5 -30 9 -27 37 3 27 7 31 31 31 28 -1 29 0 25 47 -3 51 -1 53 65
57 26 1 27 -1 27 -50z m-650 -59 c0 -20 0 -20 33 0 38 24 68 25 107 5 49 -25
63 -66 66 -192 l3 -113 -44 0 -45 0 0 104 c0 114 -3 120 -61 131 -56 10 -63
-6 -55 -131 l7 -105 -43 3 -43 3 -3 152 -3 152 28 4 c16 2 34 5 41 6 6 0 12
-8 12 -19z m430 9 c49 -11 51 -12 48 -42 -3 -35 -4 -35 -90 -22 -40 6 -48 5
-48 -8 0 -8 21 -27 48 -42 89 -52 112 -74 112 -106 0 -60 -83 -106 -165 -90
-75 14 -106 51 -70 81 13 11 23 11 54 0 88 -29 112 15 27 50 -76 30 -105 59
-99 96 7 36 19 52 58 76 35 21 55 22 125 7z m2026 -10 c48 -23 79 -65 89 -121
l7 -38 -126 0 c-108 0 -126 -2 -126 -16 0 -71 114 -111 166 -59 17 17 32 24
45 20 26 -8 24 -16 -9 -48 -56 -54 -135 -55 -194 -3 -92 82 -70 230 42 275 38
15 60 13 106 -10z m-668 -11 c61 -38 91 -143 57 -207 -27 -53 -71 -81 -126
-81 -64 0 -99 18 -127 68 -78 139 65 301 196 220z"/>
<path d="M1514 2100 c-56 -12 -151 -61 -195 -102 -20 -18 -54 -67 -75 -108
-38 -73 -39 -78 -39 -180 0 -100 2 -108 34 -172 84 -164 243 -255 400 -228
140 23 244 103 306 232 31 65 35 81 35 155 0 173 -92 312 -253 383 -51 23
-156 32 -213 20z m172 -115 c37 -25 45 -134 26 -320 -13 -123 -23 -152 -57
-161 -33 -8 -47 6 -65 66 l-13 45 -11 -50 c-14 -63 -37 -76 -130 -73 -57 3
-71 6 -80 23 -6 11 -13 22 -16 25 -27 24 -40 219 -21 288 6 18 25 49 45 70 19
20 43 48 54 62 15 18 33 26 73 31 100 12 174 10 195 -6z"/>
<path d="M2468 434 c-50 -26 -72 -98 -47 -147 42 -81 100 -97 162 -46 34 28
37 35 37 83 0 44 -4 56 -27 78 -25 24 -73 49 -91 48 -4 -1 -19 -7 -34 -16z"/>
<path d="M1314 284 c-15 -22 -15 -27 -3 -35 36 -22 89 -1 89 36 0 22 -4 25
-35 25 -26 0 -39 -6 -51 -26z"/>
<path d="M2822 437 c-23 -13 -44 -40 -55 -69 -6 -16 3 -18 93 -18 90 0 100 2
100 18 0 26 -50 71 -85 77 -17 3 -40 -1 -53 -8z"/>
<path d="M2128 417 c-50 -42 -62 -101 -33 -157 19 -37 43 -50 92 -50 109 0
142 164 43 215 -40 21 -70 19 -102 -8z"/>
</g>
</svg>
